<svg version="1.0" xmlns="http://www.w3.org/2000/svg" width="1408" height="1408" viewBox="0 0 1056 1056"><path d="M521 1c-.8.4-3.3 1.6-5.5 2.6-12.1 5.7-23.8 25.1-28.1 46.9-1.4 6.9-2.6 16.1-3.1 23.5-.3 4.7-.6 8.6-.8 8.8-.3.4-4.5.9-12.5 1.7-5.9.6-29.9 4.1-34 5.1-1.4.3-3.8.8-5.5 1-1.6.3-7.7 1.7-13.5 3.1-5.8 1.3-11.2 2.6-12 2.8-.8.1-3.5.9-6 1.6-2.5.7-5 1.3-5.7 1.5-2 .4-26.6 8.4-28.8 9.4-1.1.5-6.3 2.5-11.5 4.6-14.8 5.7-45.1 20-45.8 21.6-.2.5-.8.8-1.4.8-1.9 0-38.8 23-42.4 26.5-.6.5-2.6 2.1-4.4 3.5-23.5 17.6-39.7 33.2-62.6 60.4-1.3 1.5-2.4 3.1-2.4 3.4 0 .3-.7 1.2-1.6 2.1-2.5 2.6-14.4 19.9-14.4 21 0 .6-.4 1.1-1 1.1-.5 0-1 .5-1 1.1 0 .6-.9 2.3-1.9 3.8-2.2 3.1-13.6 25.2-16.8 32.6-5.5 12.5-12 31.6-13.8 40.5-.3 1.3-1.6 7.1-3.1 13.5-1.3 5.3-2.6 15.1-4 29.5-1.2 12.5-.5 45.3 1.1 52.4.3 1.2.7 3.9 1 6.1.3 2.2.7 5.1.9 6.5.3 1.4.8 3.8 1.1 5.5.3 1.6.8 4.1 1.2 5.5.3 1.4.8 3.4 1 4.5 1 5.5 2.7 11.7 5.5 19.5 1 3 2.1 6.2 2.3 7 1.4 6 12.9 31.5 19.1 42.5 6.4 11.2 6.8 11.8 8.6 13.9 1 1.1 1.8 2.4 1.8 2.9s.8 1.9 1.7 3.2c1 1.2 2.5 3.3 3.3 4.5 2.6 3.9 15.3 20.3 18.5 23.9 16.4 18.6 25.2 27.1 46.8 45.4 2.5 2.1 2.8 2.9 2.2 6.3-2.9 18.1-2 46.9 2.1 65.9.9 3.8 1.7 7.9 1.8 9 .2 1.1.6 2.7.9 3.5.3.8 1.6 5 2.8 9.4 2 6.8 2.1 8.4 1.1 12-.7 2.2-3.2 11.4-5.7 20.4-2.4 8.9-4.7 16.7-5.1 17.4-.5.7-.3.8.5.3 1-.6 1.1-.3.2 1.2-1.2 2.3-1.3 3.1-4.6 21.8-3.3 19.5-3.9 26.2-3.9 48.5 0 18.7.3 22 2.5 35.5 5.7 33.5 22.2 66.2 44.9 88.4 2.9 2.8 13.8 12.2 18.7 16.1 8.9 7.1 34 20.7 49.8 27 16 6.4 41.3 14.6 67 21.5 33.8 9.2 57.9 17.1 71.9 23.5 2.5 1.1 4.7 2 5 2 .3 0 4.1 1.6 8.3 3.7 4.3 2 9.4 3.6 11.3 3.6 1.9.1 6.7-1.4 10.5-3.2 3.9-1.8 7.5-3.4 8-3.6.6-.1 2.8-1 5-2 2.2-1.1 4.2-1.9 4.5-2 .3-.1 1.4-.5 2.5-1 4.5-1.8 12.1-4.7 13-5 .6-.1 2.4-.8 4-1.4 1.7-.7 3.7-1.4 4.5-1.6.8-.2 4-1.3 7-2.5s5.6-2.1 5.8-2.1c.1.1.3.1.5 0 .1 0 .9-.2 1.7-.4 2.1-.6 20.8-6 37-10.7 7.4-2.1 14.4-4.1 15.6-4.3 3.3-.7 31.2-10 38.9-12.9 23.3-8.9 49.2-23.1 62.5-34.3 12.9-10.9 24.6-23.8 32.5-35.8 13.4-20.3 22.5-44.2 26.1-69 2.2-14.9 2.2-53.7-.1-64.4-.2-1.4-.7-4.9-1-7.6-.3-2.8-.8-5.7-1-6.5-.2-.8-.7-2.9-.9-4.5-.8-4.6-5.4-25.5-6.6-30-1.7-6.4-2.1-7.9-2.6-10.1-.2-1.2-1.3-5.3-2.5-9-3.2-10.2-3.2-10.9-.4-18.6 1.4-3.9 3.4-11 4.5-15.7 1.8-8.3 2.3-11.4 4-23.1.9-6.3.5-42-.5-49.4-.7-5.3-1.2-4.7 8.5-12.6 18.9-15.6 38.5-36.2 52.7-55.5 4-5.5 7.7-10.5 8.1-11 7.2-9.7 16.8-27.3 27.2-50 2.1-4.4 6.8-17.4 8-22 .5-1.7 1.6-5.5 2.5-8.5 1.6-5.7 5.2-21.3 6.1-26.5 1.4-8.7 2.2-15.8 2.8-23.8.3-3.7.7-7.1 1.1-7.6.3-.5.1-1.2-.5-1.6-.6-.3-.7-1.4-.2-2.3 1.4-3.1-.4-35.7-2.4-44.7-.4-1.6-.8-4.1-.9-5.5-.7-13-13.2-53.7-21.1-69.2-.8-1.5-1.4-2.9-1.4-3 .1-.2-2-4.1-4.5-8.7-2.5-4.7-4.5-8.8-4.5-9.3 0-.4-.4-.8-.8-.8-.5 0-1.4-1.2-2.1-2.8-1.7-3.6-15.8-24.6-18.8-27.8-1.2-1.4-2.3-2.9-2.3-3.4 0-.4-.3-1-.7-1.2-.5-.2-2.8-2.8-5.3-5.8-11.2-13.7-31.8-34.4-43.8-44.2-4.2-3.4-7.9-6.5-8.2-6.8-1-1.1-18.5-13.6-25.5-18.2-29.1-18.9-64.9-36.3-97.5-47.2-11.3-3.7-24.2-7.5-30.8-9-.9-.2-3.7-.9-6.2-1.6-2.5-.7-5.6-1.4-7-1.6-1.4-.3-5.6-1.1-9.5-1.9-6.8-1.3-14.3-2.5-19.5-3.1-1.4-.1-2.5-.3-2.5-.4 0-.2-2-.5-9.5-1.4-3-.3-7.2-.8-9.2-1.1-2-.3-5.8-.7-8.4-1-2.6-.2-4.8-.6-4.9-.7-.2-.2-.6-4.1-.9-8.8-1.1-14.2-4.2-30.1-8-40.5-.9-2.4-6.8-14.6-7.8-16-2.9-4.2-9.7-10.8-13.3-12.9C529.6 1.7 523.1 0 521 1zm8 19.7c5 4.6 11 16.4 13.9 27.2 1.2 4.6 1.9 8.6 1.7 8.8-.3.3 0 1.7.5 3.1 3.1 8.2 2.8 53.9-.6 76.2-.2 1.9-.7 5.7-1.1 8.5-.3 2.7-.9 7.5-1.4 10.5-.5 3-1.2 7.3-1.5 9.5-.3 2.2-1.5 8.5-2.6 14s-2.2 11.3-2.5 13c-.2 1.6-1.3 6.6-2.4 11-1 4.4-2.4 10.5-3.1 13.6l-1.2 5.6-5.8.1c-3.2 0-5.8-.2-5.7-.6.1-.4-.6-4.1-1.6-8.2-1.5-6.6-5.3-23.8-6.1-28-.9-5.2-1.8-9.8-2.1-12-.7-4.2-1.4-8.4-1.8-10.5-.5-2.7-1.7-11.2-2.2-15.4-.2-1.9-.5-4.8-.8-6.5-2-12.5-2.8-25.7-2.9-46.6-.2-28.9 2.6-45.3 10.4-61.6 3.2-6.8 10.8-15.4 13.5-15.4.8 0 3.3 1.6 5.4 3.7zm-45.3 86.1l.2 7.7-12.2 3.4c-6.7 1.9-15.6 4.5-19.7 5.8-14.2 4.5-41.5 13.6-44 14.6-1.4.6-2.7 1.1-3 1.1-.3.1-1.8.6-3.5 1.3-13.2 5-20.4 7.8-23 8.8-1.6.7-5.5 2.3-8.5 3.5-6.7 2.7-13.6 5.7-23.5 10.1-2.8 1.2-5.2 2.3-5.5 2.4-.5.1-16.9 8-29.5 14.1-3.3 1.6-6.1 3.2-6.3 3.6-.2.5-.9.8-1.5.8-.7 0-7.7 3.6-15.5 8-7.9 4.4-14.5 8-14.7 8-.3 0-10.1 6-22.5 13.8-11.6 7.4-19.5 12.7-19.8 13.4-.2.5-.8.8-1.3.8-.6 0-1.5.5-2.2 1-.7.6-6.8 5.2-13.7 10.2-6.9 5-12.8 9.6-13.2 10.2-.4.6-.9.8-1.2.5-.3-.3.2-1.4 1.2-2.5 1.4-1.6 9.1-11.5 12.4-15.9 4.8-6.5 27.1-29.4 37.3-38.3 9-7.9 31.8-24.6 44.4-32.6 13.3-8.4 41.2-23 55.1-28.8 18.6-7.8 54-19.5 67.4-22.3 1.2-.2 6.3-1.3 11.3-2.4 5.1-1.2 10.7-2.3 12.5-2.6 1.8-.2 4.2-.6 5.4-.9 1.2-.2 4.5-.7 7.4-1.1 2.9-.4 6.2-.8 7.3-1.1 1.1-.2 4.3-.6 7.1-.9 2.8-.3 5.1-.7 5.2-.8.2-.1 2.4-.3 5.1-.5l4.8-.2.2 7.8zm132.8-.5c1.7.2 4.8.9 7 1.5s4.9 1.3 6 1.5c12.3 2.3 36.3 10 58 18.4 19 7.5 58.2 26.9 56.9 28.2-.2.2-1.6.6-3.1.7-3.5.4-10 1.3-13.3 1.8-1.4.3-6.1 1-10.5 1.6-4.4.7-8.9 1.4-10 1.6-1.1.3-3.4.6-5 .8-1.7.2-4.4.6-6 1-1.7.3-4.5.8-6.4 1.1-1.9.3-3.7.8-4 1-.4.2-2.7.6-5.1 1-2.5.3-5.2.8-6 1-.8.2-2.8.7-4.5.9-2.4.5-17.8 3.7-29 6.2-1.1.2-2.9.6-4 .8-3 .6-40 10.3-48 12.6-3.8 1.1-8 2.3-9.3 2.6-1.3.2-4.4 1.2-7 2.1-2.6.8-5.1 1.6-5.7 1.7-.5.1-4.3 1.3-8.2 2.6-4 1.3-7.5 2.1-7.8 1.8-.3-.2.3-4.7 1.4-9.9 1.1-5.2 2.2-11 2.5-12.9.3-1.9.8-4.6 1-6 1-5.1 1.5-8.4 2.2-12.9.3-2.5.8-5.7 1-7.1.2-1.4.6-5.3.9-8.7.3-3.3.8-7.6 1-9.5.3-1.8.8-6.7 1.1-10.8.3-4.1 1.1-7.8 1.7-8.2.9-.6 7-1.8 15.7-3.2 1.4-.3 2.5-.5 2.5-.6 0-.2 2.6-.7 7.2-1.4 7.7-1.1 11.8-1.8 12.1-2.1.5-.4 10.3.1 14.7.8zm-130 33.2c.4 3.8.9 7.8 1.1 9 .5 2.2 2.3 14.1 3 19.5.2 1.9.7 4.3 1 5.3.3 1 .7 3.1.9 4.7.2 1.6.9 5.7 1.6 9.2.6 3.5 1.3 7.3 1.4 8.5.2 1.2.5 2.6.8 3 .3.5.8 2.6 1.1 4.8.4 2.2 1.3 6.3 2 9.2l1.4 5.2-3.3 1.5c-1.8.9-3.6 1.6-4 1.6-1.6 0-33 13.8-47.5 20.8-8.5 4.1-15.8 7.5-16.2 7.4-.3-.1-1.2.5-1.8 1.3-.7.8-1.6 1.5-2.1 1.5-.9 0-27.9 14.9-35.4 19.5-2.2 1.3-5.3 3.2-7 4.1-9.5 5.3-55.8 37-61.1 41.9-3.1 2.8-5.5 4.5-6.3 4.5-.5 0-1.1.3-1.3.8-.1.4-2.5 2.5-5.3 4.7-27.8 22.1-61.6 54.8-80.1 77.5-1.6 1.9-3.1 3.7-3.4 4-.4.3-4.3 5.2-8.9 11-4.5 5.8-8.9 11.3-9.7 12.3-.8.9-1.4 2.1-1.4 2.6s-.4 1.1-.8 1.3c-.4.1-2.8 3.2-5.2 6.8-2.5 3.6-4.8 6.9-5.3 7.5-3.4 4.5-16.6 26.5-20.3 33.7l-2.6 5.2-1.4-2.6c-1.5-2.9-9.1-25.4-9.8-29-.2-1.3-.9-4.1-1.5-6.4-1.3-5-3-13.5-3.7-18.9-.3-2.2-.7-4.6-.9-5.3-.8-2.3-1.9-21.5-1.9-32.2 0-13.5 1.2-29.3 2.9-38.9.2-1.3.7-4.4 1.1-6.8.3-2.4 1-4.6 1.5-4.9.5-.3.7-.9.4-1.4-.4-.7 1.4-8 5.9-23.5.4-1.3 1.1-3.2 5.3-14.2 3.4-8.8 4.1-9.7 12.3-17.5 12.5-12 16.2-15.1 31-26.7 3.6-2.8 7.4-5.8 8.5-6.7 1.1-.9 3.8-2.8 6-4.2 2.2-1.5 4.2-3 4.5-3.3 2-2.5 46.8-30.9 48.8-30.9.6 0 1.2-.4 1.4-.8.7-1.8 50.9-27.8 71.4-36.9 29.2-13.1 81.8-33.2 96.9-36.9.6-.2 8.4-2.5 17.5-5.2s16.8-4.6 17.2-4.3c.4.3 1 3.7 1.3 7.6zm290.8 37.4c19.3 14.4 35 28.8 49.5 45.4 9.6 10.9 11.1 13 9 12.6-.7-.2-3.8.3-6.8.9-3 .6-6.8 1.4-8.5 1.7-3.9.7-7.5 1.4-10 1.9-1.1.3-6.5 1.4-12 2.6-5.5 1.2-16.3 3.7-24 5.6-7.7 2-14.7 3.7-15.5 3.9-3 .6-24.5 6.6-26 7.2-.8.3-2.1.7-2.8.9-2.9.6-20 6-36.2 11.5-9.6 3.3-18.2 6.1-19 6.3-.8.2-4 1.4-7 2.6-3 1.2-5.9 2.3-6.5 2.5-.5.1-1.9.6-3 1-1.1.5-4.2 1.7-7 2.7-2.7 1-5.9 2.2-7 2.7-1.1.5-9.4 3.9-18.5 7.7-9.1 3.7-19 7.9-22 9.3-3 1.4-5.7 2.6-6 2.6-.3 0-1.6.7-2.8 1.4-2.8 1.5-2.9 1.5-3.7-2.9-1.9-11.3-2.7-15.4-4.2-20.2-.9-2.9-1.8-5.6-1.9-6.1-.1-.4-.3-.9-.4-1.2-.1-.3-.3-.8-.4-1.3-.4-2.2-4.4-11.5-7.4-17.2-7.2-13.7-18.7-26.8-28.1-32.1-3.6-2-3.9-2.5-3.4-5.3.8-4.2 2.8-6 9.3-8 23.3-7.4 58.8-17.7 65.7-19 1-.2 4.7-1.2 8.3-2.1 3.6-1 7.4-1.9 8.5-2.1 1.1-.2 5.7-1.2 10.2-2.3 9.3-2.3 7.9-2 27.8-6 18.2-3.6 20.1-4 24.5-4.6 1.9-.3 4.6-.8 6-1.2 1.4-.3 3.2-.7 4-.8.8-.1 4-.5 7-1 3-.4 6.4-.9 7.5-1.1 22.7-3.2 24.2-3.4 30.5-4.1 3-.3 5.6-.6 5.7-.7.1-.1 1.8-.3 3.8-.4 3-.2 4.9.8 12.8 6.7zm-244.6 62.7c2.6.9 6.6 2.9 8.8 4.4 5.1 3.5 13.5 12.1 13.5 13.7 0 .7.4 1.3.8 1.3 1.4 0 9.8 16.9 12.6 25.3 9.4 27.7 10.6 62.5 3.1 90.3-5.2 19-13.2 34.3-23.1 44.1-3.5 3.4-7.7 6.9-9.5 7.8-13.6 7.1-28 4.3-40.1-7.9-3.1-3.1-6-6.6-6.3-7.7-.4-1-1-1.9-1.5-1.9-1.2 0-11-20.2-12.5-26-.1-.3-.4-1.2-.8-2-1-2.5-2.6-9.3-3.1-13.2-.2-2.1-.7-4.1-.9-4.6-1.9-3-2.8-35.9-1.3-47.7 1.7-14 4.7-26.8 8.3-35.3.8-2 2-4.8 2.6-6.2.6-1.4 1-2.8.9-3.3-.1-.4.2-.7.8-.7.6 0 1-.5 1-1.1 0-.6 2-4.1 4.4-7.7 12.3-18.9 27.4-26.6 42.3-21.6zm-52.4 7.1c-1.5 2.1-3 4-3.3 4.3-1 1-2.9 4.5-6.9 12.6-5.9 12-11 28.2-12.7 41-.3 2.7-1 7.1-1.4 9.9-.9 5.5-.6 39.2.4 44 .3 1.6.9 4.6 1.2 6.5 1.3 7.3 1.5 8.7 3 14.4 1.7 6.6 1.9 6.3-5.6 11.4-3.3 2.3-13.5 9.9-24 18.1-9.9 7.7-10.7 8.3-12.3 9.6-14.8 12.3-15.5 12.9-31.8 27.5-8.4 7.5-33.7 32.6-42.4 42.1-14.1 15.3-16.5 17.9-16.5 18.4 0 .2-1 1.5-2.2 2.8-11.2 11.6-41 51.7-51.3 68.9-.5.9-4.1 6.8-7.8 13.2-3.8 6.4-7.3 11.6-7.8 11.6-.6 0-2.1-1-3.4-2.3-1.3-1.2-4.5-4-7.1-6.2-5.1-4.3-20.4-19.4-27-26.6-9-9.9-31.4-40.2-31.4-42.5 0-.4-.6-1.5-1.4-2.3-2.1-2.5-7.6-13.1-7.6-14.7 0-1.6 8.1-17.5 14.5-28.4 11.1-19 36.5-53.9 49.8-68.4 1.2-1.3 5.6-6.2 9.8-10.8 23.8-26 48.4-48.2 83-74.8 12.6-9.7 58.8-40.1 65.9-43.4.8-.3 4.2-2.2 7.5-4.2 3.3-1.9 8-4.5 10.5-5.7 2.5-1.2 4.7-2.5 5-2.9.6-.7 33.3-16.9 42-20.8 6.8-3 13.4-5.9 13.8-5.9.2-.1-1 1.6-2.5 3.6zm369.9 5.5c8.4 11 21.5 35.6 27.8 51.8 1.8 4.7 3.7 9.4 4.1 10.5 3 7.1 10.1 36.3 11.3 46.6.3 2.4.8 6.4 1.1 8.9.4 2.5.8 9.5 1 15.7.2 6.2.6 11.7 1 12.3.3.5.3 1-.2 1-.4 0-.8 3-.9 6.8 0 7.2-1.2 21.3-1.9 23.4-.2.7-.6 3.1-.9 5.3-.3 2.2-1 6.2-1.6 9-.7 2.7-1.3 5.7-1.5 6.5-1.8 8.1-2.7 11.5-3.1 12.2-.7 1-3.4-3.7-3.4-5.7 0-.7-.4-1.5-.8-1.7-.4-.2-2.4-3.2-4.4-6.8-7.2-12.9-21.4-32.7-31.8-44.5-8.8-9.9-28.2-28.5-36-34.4-2.5-1.9-4.9-3.9-5.5-4.6-1.6-1.7-24.3-16.8-33.5-22.2-18.1-10.5-41.2-20.8-63-27.9-2.5-.9-5.2-1.8-6-2.1-.8-.3-1.9-.7-2.5-.9-.5-.1-8-2-16.5-4.3-8.5-2.2-17.3-4.2-19.4-4.6-3.8-.5-5.4-1.2-4.5-1.8.9-.5 11.2-4.2 33.4-11.8 12.6-4.4 22.9-7.9 23-8 0 0 .7-.2 1.5-.4.8-.1 7.6-2.1 15-4.3 13.2-4 21.3-6.3 23.6-6.8.6-.1 3.8-1 7-1.9 3.3-.9 7-1.9 8.4-2.1 1.4-.3 3.9-.9 5.5-1.4 1.7-.5 4.1-1.2 5.5-1.4 1.4-.3 10.4-2.4 20-4.6 9.6-2.1 19.3-4.2 21.5-4.6 2.2-.3 4.2-.7 4.5-.9.3-.2 2.3-.6 4.5-1 2.2-.3 5.8-1 8-1.4 6.5-1.4 7.2-1.2 9.7 2.1zm-206.7 63.3c1.7.2 6.6 1.1 11 2 4.4.8 8.9 1.7 10 1.9 7.5 1.4 8.9 1.7 9.7 2.2.5.3 2.1.7 3.6.9 5.5.8 33.5 9.6 42.7 13.6 1.7.7 3.3 1.3 3.8 1.4.4.2.9.4 1.2.5.3.1.9.3 1.3.4.5 0 2.4.9 4.3 1.8s4.9 2.3 6.7 3c1.7.7 3.2 1.6 3.2 2 0 .5.7.8 1.5.8 2.9 0 25.1 12.5 39.5 22.3 20.1 13.7 45.8 37.3 59.8 55.2 3.5 4.4 6.8 8.7 7.5 9.5 3.8 4.7 14.8 23.1 19.8 33 9.2 18.4 9.9 20.2 8.4 23.1-.8 1.3-4.6 8.9-8.5 16.9-6.1 12.3-22.9 39.6-27.2 44.1-.7.8-4 4.8-7.3 8.9-3.3 4.1-8.9 10.6-12.5 14.3-3.6 3.8-6.6 7.3-6.8 7.8-.2.5-.7.9-1.2.9-.4 0-3 2.2-5.6 4.8-7.3 7.2-18.5 16.3-19.6 16-.5-.2-2.1-2.6-3.6-5.3-1.5-2.8-3-5.2-3.4-5.3-.5-.2-.8-.9-.8-1.5 0-1.1-4.6-8.6-7-11.4-.5-.7-1-1.5-1-1.8 0-2-35.6-51.6-39.1-54.5-.3-.3-2.8-3.2-5.5-6.5-2.6-3.3-6-7.4-7.5-9-1.5-1.7-3.7-4.1-4.9-5.5-11.1-12.9-33.7-36.1-48.4-49.5-4.9-4.4-9.5-8.7-10.4-9.6-1-.8-5.1-4.4-9.2-8-4.1-3.5-7.7-6.7-8-7-.3-.3-6.6-5.4-14-11.3s-14.2-11.3-15-11.9c-.8-.7-5.5-4.2-10.5-7.7-4.9-3.6-9.6-7-10.3-7.7-.7-.7-2-1.6-2.8-2.1-1.3-.7-1.2-1.7.5-8.3 3.4-12.6 4.9-23.4 5.6-39.8.2-5.7.5-10.4.7-10.5.2-.1 3.2-1.4 6.8-3 3.6-1.6 7.2-3.3 8-3.7.8-.5 2.2-1.2 3-1.5.8-.3 4.9-2 9-3.8 7.9-3.4 8.4-3.4 22.5-1.1zM471 407.7c2.9 5.8 9.1 14.6 13.3 19 1.7 1.8 2.7 3.6 2.4 4-.4.4-2.9.8-5.5.9-4.9.1-16.6 1.2-21.7 2-6.6 1-8.2 1.3-12 1.9-2.2.4-4.9.8-6 1-4.1.6-20.1 4.6-22.5 5.6-2.4 1-2.4.9.5-1.8 3.7-3.6 21.6-17.9 36-28.9 1.1-.8 4-3 6.5-4.9 2.5-1.9 5-3.4 5.5-3.4.6-.1 2.1 2 3.5 4.6zm112.6-2.9c1 1 6.4 5.1 11.8 9.2s11.1 8.4 12.5 9.5c5.2 3.9 17.7 14.1 21.1 17.2 1.9 1.7 4.8 4.1 6.3 5.3 3.7 2.9 3 3.4-2.1 1.6-2.3-.9-4.2-1.3-4.2-1.1 0 .3-1 .1-2.3-.4-2.1-.8-19.4-4.7-25.4-5.8-3.2-.5-5.9-1-12.3-2.2-5-1-7.8-1.4-15-2.6-1.4-.2-4.5-.6-7-.9-2.5-.4-5.4-.8-6.5-1-1.1-.3-2.2-.5-2.4-.5-.3-.1 1-1.6 2.9-3.4 4.6-4.4 13.2-16.2 16-22 2.6-5.1 3.6-5.6 6.6-2.9zM539 448.4c5.8.4 11.6.9 13 1.1 3.1.4 15 1.8 17 2 .8.1 2.9.4 4.5.8 1.7.3 5 .9 7.5 1.2 2.5.3 5.2.8 6 1 .8.2 3.3.7 5.5 1 2.2.4 4.9.9 6 1 4.7.8 21.6 4.7 28.1 6.5 3.9 1 8.2 2.1 9.7 2.4 1.5.2 3 .7 3.5 1 .5.3 1.9.7 3.3 1 1.3.2 7.1 1.9 12.8 3.7l10.4 3.2 10.1 10.2c12.9 13 22.8 23.7 33.6 36.5 3 3.6 5.7 6.7 6 7 .6.5 6.6 8 12.5 15.5 1.7 2.1 3.6 4.4 4.3 5.1.6.7 1.2 1.6 1.2 2.1 0 .4 1.5 2.5 3.3 4.5 4.3 5 13.7 18.4 13.7 19.6 0 .6.4 1.2.9 1.4 1.1.4 16.2 24.4 21.5 34.1 3.5 6.5 3.9 9.5 1.7 13.2-.3.5-.6 1.2-.7 1.5-.3 1.5-3 7.5-6.6 14.5-9.8 19.3-25.6 37.9-43.3 51.1-5.5 4.1-10.5 7.8-11.1 8.3-1 .8-16.4 8.3-20.9 10.2-4 1.6-18.1 5.7-21.9 6.3-2.1.4-4.1.8-4.5 1-.3.2-3.5.7-7.1 1.1-3.6.4-7.8.9-9.5 1.1-3.7.4-29.9.4-34 0-1.6-.2-6.4-.7-10.5-1-4.1-.4-7.7-.9-8.1-1.2-.7-.4-4.4-1-10.4-1.8-1.6-.3-5.2-1-8-1.6-2.7-.7-5.7-1.3-6.5-1.5-.8-.2-1.6-.4-1.7-.5-.3-.3-.7-.4-5.5-1.3-6.4-1.3-8.4-.2-11.9 6.9-6.4 12.7-15.8 18.9-28.9 18.8-5.7 0-8.7-.6-12.5-2.4-6.5-3-12.8-9.5-15.9-16.4-1.4-3-3.5-6-4.7-6.6-2.3-1.3-3.3-1.2-14.4 1.3-3.9.9-8.2 1.8-9.5 2.1-1.4.2-4.5.9-7 1.4-2.5.6-6.5 1.3-9 1.6-2.5.3-7 .9-10 1.3-7.1 1-42.8 1-50 0-6.1-.9-9.5-1.5-9.5-1.7 0-.1-1.2-.3-2.6-.5-9.7-1.3-33.6-10.2-41.9-15.5-7-4.6-15.8-10.7-17.9-12.5-3.3-2.7-18-17.4-20.9-20.8-3.6-4.4-13.2-18.6-13.2-19.6 0-.5-.4-1.1-.8-1.3-1.2-.4-8.9-16.9-11.5-24.4-1.3-4-1.3-4.3 1.8-10 6.8-12.7 14.6-25.2 24.3-39.4 3.6-5.2 7.6-11.1 8.9-13 1.3-1.9 2.8-3.7 3.2-4 .4-.3 1.8-2.1 3.1-4s3.5-4.9 4.9-6.6c1.4-1.7 3.3-4 4.1-5 4.2-5.4 13.6-17 14.1-17.4.3-.3 3.9-4.3 8-9 9.3-10.7 8-9.2 23.9-25.5 12.2-12.5 14.3-14.2 21.6-17.6 7.7-3.6 23.1-9.3 27.7-10.4 1.2-.3 7.6-1.8 14.2-3.4 6.6-1.7 14.3-3.3 17-3.7 2.8-.3 5.2-.7 5.5-.9.4-.2 5.2-.9 15.5-2.1 1.7-.2 7.5-.6 13-1 5.5-.3 10.1-.7 10.2-.8.5-.5 35.5.2 45.3.8zM271.4 658.1c-.2.4-.1.9.4 1.1.4.1 2.4 2.8 4.4 5.8 2 3 4.4 6.5 5.5 7.7 1 1.2 2.8 3.5 4.1 5.1 4.2 5.5 22.4 23.2 23.8 23.2.5 0 1.9 1.1 4.8 3.7 7.4 6.5 35.3 20.6 45.6 22.8.3.1 2.5.7 5 1.4 8.6 2.5 21.8 4.8 31.5 5.6 9.8.8 39.3.3 46.5-.8 2.5-.4 12.2-1.8 15-2.2 1.3-.1 5.4-1 15.5-3.1 8.7-1.8 8.9-1.8 10.9 2 2.6 4.9 11.2 12.9 17.2 15.9 18.5 9.4 40.7 6.2 54.8-7.7 2.9-2.9 6.2-6.8 7.2-8.5 2.1-3.6 2-3.6 14.9-.8 3.9.9 8.8 1.8 10.9 2.1 2.1.4 4.8.8 6 1.1 1.2.3 4.8.7 8.1 1.1 3.3.3 7.8.7 10 1 5.3.5 31.7.5 38 0 15.9-1.4 38.7-6.9 50-12.1 7.9-3.6 16.2-7.6 18-8.7 19.3-12.3 34.7-25.6 44.1-38.3 2.5-3.3 5-6.7 5.7-7.5 2.6-3.4 6.6-9.7 7.8-12.3 5.6-12.6 3.1 23.1-3.2 45.8-1.1 3.8-2.4 7.9-2.9 9-.5 1.1-2.1 4.9-3.6 8.5-1.5 3.6-3.4 7.2-4.1 8.1-.7.8-1.3 1.9-1.3 2.3 0 1-6.2 10-7.2 10.4-.4.2-.8.9-.8 1.5 0 1.6-15.3 16.4-21 20.4-6.5 4.6-25.5 13.8-32.5 15.8-9.2 2.6-11.2 3-19 4-3.2.4-6.8.9-7.9 1.1-3.2.6-20.5 1.6-27.1 1.6-7 0-27.4-1.1-32.5-1.7-1.9-.2-5.7-.7-8.5-1-2.7-.3-6.2-.8-7.7-1.1-1.5-.3-3.9-.7-5.5-.9-3.2-.4-6.8-1-13.8-2.4-4.7-1-6.7-1.4-12.2-2.6-1.3-.3-3.5-.7-4.9-1-4.1-.9-25.4-6.5-29.4-7.7-4.6-1.5-10.1-1.8-12.1-.8-.9.5-2.7 1.1-4 1.4-1.3.3-7.6 1.9-13.9 3.5-6.3 1.6-12.8 3.3-14.5 3.6-1.6.3-3.4.7-4 .9-1.7.4-6.9 1.5-9.5 2-1.4.3-5 .9-8 1.5-3 .5-7.3 1.3-9.5 1.6-2.2.3-5.1.7-6.5 1-6.4 1.2-16.2 2.2-30.5 3-13.5.9-17.4.9-29.5.1-18-1.2-25.2-2.3-36.5-5.7-3.8-1.1-7.7-2.2-8.5-2.4-1.7-.4-8-3-15.5-6.6-13.3-6.2-31-21.4-39.3-33.7-9.5-13.9-15.9-30-19.7-49.2-1.3-6.4-2.5-18.3-2.9-27.4l-.3-6.9 2.3 2.8c1.3 1.6 2.1 3.2 1.8 3.6zm8.1 90.5c13.5 18.2 34 33.7 54 40.9 7 2.6 7.2 3 1.8 5-8.5 3.2-21.1 9.8-27.8 14.7-4.9 3.6-13.7 11.2-16.5 14.5-7.1 8.1-9 10.3-9 10.7 0 .3-1.3 2.4-2.9 4.8-6.2 9.2-15.8 31.8-14.5 33.9.3.5 0 .9-.5.9-.6 0-1.1-.2-1.1-.4s-.4-2.5-.9-5.2c-2.1-11.2-2.6-17.9-2.5-37.4.1-20.6.8-30.4 2.7-39.5.3-1.1.8-4 1.2-6.5.4-2.5.9-5.4 1.1-6.5.3-1.1.7-3.4 1-5.1.2-1.7 1.8-8.2 3.5-14.5 1.6-6.3 3.1-12.1 3.4-12.9.2-.8.4-2.3.4-3.3.1-.9.3-1.7.6-1.7.2 0 2.9 3.4 6 7.6zm495.3-4.4c0 .7 1.4 6.4 3.1 12.7 1.6 6.3 2.8 11.8 2.5 12.3-.3.4-.1.8.5.8.5 0 .8.8.6 1.7-.1 1 .1 2.7.5 3.8.4 1.1 1 3.8 1.4 6 .3 2.2.7 4.9 1 6 .2 1.1.7 4.5 1.1 7.5.4 3 .9 6.4 1.1 7.5 1.4 7.4 2 36 1 47-.2 2.7-.5 6-.5 7.2-.1 1.3-.5 2.3-1 2.3-2.6 0-20.1-19.9-20.1-22.8 0-.5-.3-1.2-.7-1.4-1.1-.4-5.1-9.1-7.5-15.8-4.3-12.6-5.7-21.9-6.2-41.4l-.2-9 7.4-7.5c4-4.2 8.9-9.9 10.9-12.8 3.7-5.4 4.9-6.3 5.1-4.1zm-39.4 45.3c.3 5 .7 9.9.9 11 1.1 5.6 2 10.2 2.2 12 .5 3.7 4.8 15.9 7.8 22.5 6.7 14.5 17.7 28.2 29.8 37.2 3.8 2.8 6.9 5.7 6.9 6.4 0 2-4.8 16.8-6.5 20.1-.8 1.5-1.5 3.3-1.5 3.8 0 1.7-10.9 20.4-15.3 26.4-6.2 8.3-17.2 20.1-22.9 24.6-.7.6-3.4 2.7-5.9 4.8-2.5 2-5.1 3.7-5.7 3.7-.6 0-1.2.5-1.4 1.2-1.2 3.5-20.3-11.5-28-22-5.7-7.7-11.9-20.9-13.3-28.1-2.2-11.9-2.2-20.3-.1-31.1 1.9-9.8 1.7-9.3 6.4-25 8-26.5 10.2-37.7 9.6-49.5-.2-4.4-.4-8.8-.6-9.9-.2-1.5 1.4-2.4 9.7-5.2 5.5-1.8 13.8-5.3 18.5-7.7 4.7-2.4 8.6-4.3 8.7-4.2.1 0 .4 4.1.7 9zm-200.7-4.9c10.5 2.9 12.7 3.4 22.3 5.5 9.3 2.1 21.6 4.5 27.5 5.4 1.7.3 3.8.6 4.8.8.9.2 2.3.9 2.9 1.5 1.7 1.7 1.9 17.8.3 22.4-.7 2.1-.9 3.6-.6 3.3 1.7-1-14.9 41.6-18.9 48.7-.6 1-1 2.3-1 2.9 0 .6-.6 2.5-1.4 4.2-1.7 3.8-6.4 18.3-7.1 21.8-.5 2.5-1 4.8-2 8.9-2.3 10.3-2.3 27.2 0 37 .3 1.4.7 3.4.9 4.5 1.6 10.3 18.6 37.5 34.2 54.5 3.3 3.5 3.8 5.3 1.8 5.6-3.5.5-29.9 9.2-44.4 14.6-1.4.5-2.5.9-2.5.8 0-.1-5.9 2.4-16 6.9-12.6 5.5-11.3 5.2-13.6 3.3-18-14.7-33.4-33-42.8-50.6-6.9-13-13.1-31.7-14.8-44.7-1.7-13.3-.3-44.9 2.2-48.9.2-.4.7-2.2 1-4.1.7-4.4 6.3-21.6 8.1-25 .7-1.5 1-2.9.7-3.3-.4-.3-.1-.6.5-.6.7 0 1.2-.7 1.2-1.6 0-.9 1.3-4.2 2.9-7.3 1.6-3.1 3.2-6.3 3.5-7.1.4-.8 1.2-2.4 1.9-3.5s2.7-4.7 4.6-8c6.4-11.2 23-34.8 29.4-41.7 1.2-1.3 3-3.6 4-5.1 2-3.2 2.7-3.2 10.4-1.1zm-33.7 4c0 .3-1.5 2.4-3.4 4.7-7.3 9.1-25.6 37.8-25.8 40.4 0 .4-.8 1.9-1.7 3.3-1.5 2.2-4.3 7.7-4.6 9 0 .3-.9 2.3-1.9 4.5-3.8 8.3-4.7 10.5-7.6 19.6-3.5 10.5-6.5 23.4-7.7 32.4-.9 7.3-.9 35.3 0 41.5 1.6 10.7 5.8 26.2 8.8 32.7 1 2.4 1.9 4.7 1.9 5.3 0 .9 1.9 4.7 10.6 21 .8 1.4 4 6.1 7.3 10.5s5.5 8.2 5 8.3c-.6.2-3.3-.5-6.2-1.7-6-2.4-25.1-8.2-34.7-10.5-.8-.2-5.5-1.6-10.5-3.1-8.3-2.5-13.8-4-17.5-4.9-3-.8-18.4-5.7-23-7.4-2.1-.7-2.2-.8-5.2-1.6-2.6-.8-4-3-11.4-17.7-6.4-12.9-11.7-31.4-13.1-45.4-1.1-11.2-.6-25.1 1.2-34.6.7-3.5 4.7-17.3 5.5-18.8.5-.9 2.5-5.1 4.5-9.3 10.1-21.6 28.7-42 55.2-60.7 5.1-3.6 10-6.6 11-6.8 1-.1 4.1-.5 6.8-.8 2.8-.3 6.1-.7 7.5-.9 9.4-1.5 17.5-2.9 24-4.2 4.1-.9 8.5-1.8 9.7-2 1.2-.2 4.8-1 8-1.8 7-1.7 7.3-1.8 7.3-1zm122 12.1c16.7 1.2 38.3.7 53.7-1.2 3.9-.4 4.2-.3 4.6 2.3.3 1.5.6 3.5.6 4.4.1 1 .2 2.4.2 3 .2 1.6-.9 12.6-1.6 15.5-1.1 5.1-1.3 6-2.5 10.3-.7 2.5-1.3 5.2-1.5 6-.2.8-1 3.7-1.9 6.5-10.8 34.8-12.3 47-8.2 69.5.2 1.4.5 2.6.7 2.7.2.3.2.3 1.4 4.8.4 1.6 1.2 3.6 1.8 4.2.5.7.7 1.3.3 1.3-1 0 7.2 15.6 8.9 17 .8.7 1.5 1.8 1.5 2.4 0 1.9 13.5 15.9 19.3 20.1 3.1 2.2 5.7 4.2 5.7 4.5 0 .5-13.5 7-18.5 9-1.1.4-4.2 1.8-7 3-10.9 4.9-38 14.1-51.7 17.5-3.5.9-7 1.8-7.9 2.1-2.1.6-13.5-10.7-21.4-21.2-1.6-2.1-3.3-4-3.7-4.2-.4-.2-.8-.9-.8-1.7 0-.7-.6-1.8-1.4-2.4-1.7-1.4-12.6-19.2-13-21.2-.2-.8-.5-2.1-.8-2.9-2.3-6.7-2.9-9.7-3.4-15.7-.3-3.7-.6-7.3-.6-7.8.1-2.5 1.2-13.3 1.7-15.5.3-1.4.8-3.6 1.1-5 .7-3.9 7.6-25.4 8.4-26.5.4-.6 1.1-2.1 1.5-3.4.4-1.4 2.2-5.6 4-9.5 1.8-3.9 5.2-12.1 7.5-18.1 2.3-6.1 4.6-11.7 5-12.5.4-.9 1.1-3.1 1.6-5 .4-1.9.8-3.7.9-4 .2-.8 1.5-7.3 2-10.5.5-3 .8-15.2.5-17-.4-2 0-2.4 2.3-1.9 1.2.3 6 .8 10.7 1.1zm-219.7 1.9c-2.9 2.1-6.4 5.2-15.2 13.7-22.2 21.6-36.5 46.4-42.7 74.2-2.4 11.1-2.4 43 .2 53.4.2.9.8 3.6 1.5 6.1.6 2.5 1.3 5.6 1.5 7 .3 1.4 2.4 7.3 4.8 13.2 2.4 5.9 4.1 11 3.9 11.2-.3.2-4.1-1.4-8.6-3.7-4.5-2.2-8.5-4-8.9-3.9-.5.1-.8-.2-.8-.8 0-.5-.5-1-1.1-1-1.4 0-16.4-9.7-22.8-14.8-9.1-7.2-20.6-19.1-26.9-27.7-6.9-9.4-13-20.6-12.6-23.1.2-1 .6-4.6.9-7.9 1.2-11.4 3.7-23.2 6.2-29.5.3-.8.7-2 .9-2.7.6-2.9 9-18.3 12.7-23.3 5.1-6.8 19.5-21 21.2-21 .2 0 2.4-1.3 4.8-3 6.3-4.2 28.7-13.9 28.7-12.4 0 .2 1.2-.1 2.8-.7 3.9-1.5 8.8-2.5 17.2-3.5 3-.3 5.6-.7 5.7-.8.2-.1 6.7-.3 14.5-.4 13.2-.1 14.1 0 12.1 1.4z"/><path d="M410.6 575.8c-.2.1-2.3.5-4.7.8-5.6.7-8.3 1.2-8.6 1.4-.2.2-.6.3-1 .5-.5.1-2.1.5-3.8 1-1.6.4-5.9 2.3-9.5 4-12.5 6.3-21.9 17.1-20.6 23.8 1.1 6.1 10.2 8.4 13.8 3.5 7.7-10.1 14.4-14.5 26.4-17.3 6.9-1.6 25-1.3 30.4.5 10.7 3.7 18.5 8.7 22 14.3 2.5 4 5.6 5.9 8.8 5.4 3.3-.5 6.3-3.4 6.8-6.8 1-6.4-8-16.9-19.4-22.6-3.2-1.5-6-3.3-6.4-3.8-.4-.6-.8-.7-.8-.4 0 .4-2.7-.2-6.1-1.2-7.1-2.2-26.1-4.4-27.3-3.1zm219.1-.2c-.1.2-3 .5-6.4.8-13.3 1.1-24 5.2-34.1 12.9-6.2 4.7-11.1 11.4-11.7 15.8-.6 4.7 4.1 9.2 8.7 8.4 2-.3 4.1-1.6 5.3-3.2 4-5.5 9.4-10.2 14.4-12.7 2.8-1.5 5.1-2.3 5.1-2 0 .4.6.2 1.3-.3 3.5-2.8 22.8-3.8 33.7-1.8 9.2 1.7 20.4 9 26 17.1 2 2.8 5.1 3.7 8.5 2.4 6.2-2.3 7.1-7.8 2.5-14.5-7.9-11.5-23-19.7-41-22-6-.8-12-1.2-12.3-.9z"/></svg>