<svg width="39" height="39" fill="none" xmlns="http://www.w3.org/2000/svg"><path d="M19.5 0C8.73 0 0 8.73 0 19.5S8.73 39 19.5 39 39 30.27 39 19.5 30.27 0 19.5 0z" fill="#40B3E0"/><path d="M28.988 11.217l-3.483 17.56s-.487 1.218-1.826.634l-8.038-6.162-2.922-1.413-4.92-1.656s-.755-.268-.828-.852c-.073-.585.852-.902.852-.902l19.558-7.672s1.607-.706 1.607.463" fill="#fff"/><path d="M15.024 28.58s-.235-.022-.527-.948c-.292-.925-1.778-5.796-1.778-5.796l11.812-7.502s.682-.414.658 0c0 0 .122.074-.244.415-.365.34-9.28 8.353-9.28 8.353" fill="#D2E5F1"/><path d="M18.723 25.611l-3.179 2.899s-.248.188-.52.07l.609-5.384" fill="#B5CFE4"/></svg>