<svg width="61" height="39" fill="none" xmlns="http://www.w3.org/2000/svg"><rect width="60.938" height="39" rx="3" fill="#0F3560"/><path d="M35.566 29.12H24.863V9.886h10.703V29.12z" fill="#FF5F00"/><path d="M25.549 19.501c0-3.902 1.827-7.377 4.672-9.617a12.179 12.179 0 00-7.56-2.615c-6.755 0-12.23 5.476-12.23 12.232 0 6.756 5.475 12.233 12.23 12.233 2.854 0 5.48-.978 7.56-2.616a12.212 12.212 0 01-4.672-9.617z" fill="#EB001B"/><path d="M50 19.501c0 6.756-5.475 12.233-12.23 12.233-2.854 0-5.48-.978-7.56-2.616a12.21 12.21 0 004.672-9.617 12.21 12.21 0 00-4.673-9.617 12.183 12.183 0 017.56-2.615C44.525 7.269 50 12.745 50 19.5z" fill="#F79E1B"/><path d="M19.634 19.579c0-.534.35-.973.922-.973.547 0 .916.42.916.973 0 .553-.37.973-.916.973-.572 0-.922-.439-.922-.973zm2.461 0v-1.52h-.661v.369c-.21-.274-.528-.445-.96-.445-.853 0-1.52.668-1.52 1.596 0 .929.667 1.596 1.52 1.596.432 0 .75-.172.96-.445v.369h.661v-1.52zm22.336 0c0-.534.35-.973.923-.973.547 0 .916.42.916.973 0 .553-.369.973-.916.973-.572 0-.923-.439-.923-.973zm2.462 0v-2.74h-.661v1.589c-.21-.274-.528-.445-.96-.445-.853 0-1.521.668-1.521 1.596 0 .929.668 1.596 1.52 1.596.433 0 .751-.172.96-.445v.369h.662v-1.52zM30.3 18.574c.425 0 .7.267.77.738h-1.578c.07-.44.337-.738.808-.738zm.013-.591c-.891 0-1.514.648-1.514 1.596 0 .967.648 1.596 1.558 1.596.458 0 .877-.114 1.247-.426l-.325-.49a1.446 1.446 0 01-.884.319c-.426 0-.814-.198-.91-.745h2.258c.007-.082.013-.165.013-.254-.006-.948-.591-1.596-1.443-1.596zm7.981 1.596c0-.534.35-.973.922-.973.547 0 .916.42.916.973 0 .553-.369.973-.916.973-.572 0-.922-.439-.922-.973zm2.461 0v-1.52h-.66v.369c-.211-.274-.529-.445-.96-.445-.853 0-1.522.668-1.522 1.596 0 .929.669 1.596 1.521 1.596.432 0 .75-.172.96-.445v.369h.661v-1.52zm-6.194 0c0 .922.642 1.596 1.622 1.596.458 0 .763-.102 1.093-.362l-.317-.534a1.336 1.336 0 01-.796.273c-.527-.006-.915-.388-.915-.973s.388-.967.915-.973c.287 0 .548.095.796.273l.317-.534c-.33-.26-.635-.362-1.093-.362-.98 0-1.622.674-1.622 1.596zm8.522-1.596c-.381 0-.63.178-.801.445v-.37h-.655v3.04h.661v-1.703c0-.503.217-.783.649-.783.134 0 .274.02.413.077l.204-.623a1.408 1.408 0 00-.47-.083zm-17.719.318c-.318-.21-.756-.318-1.24-.318-.77 0-1.265.369-1.265.973 0 .495.369.801 1.049.897l.312.044c.362.051.533.146.533.318 0 .235-.241.37-.693.37-.457 0-.788-.147-1.01-.319l-.312.515c.362.267.82.394 1.316.394.878 0 1.387-.413 1.387-.992 0-.534-.4-.814-1.063-.91l-.311-.044c-.286-.038-.515-.095-.515-.299 0-.223.216-.356.578-.356.388 0 .764.147.948.26l.286-.533zm8.529-.318c-.382 0-.63.178-.8.445v-.37h-.656v3.04h.66v-1.703c0-.503.217-.783.65-.783.133 0 .273.02.413.077l.204-.623a1.408 1.408 0 00-.471-.083zm-5.641.076h-1.081v-.922h-.668v.922h-.617v.604h.617v1.387c0 .705.273 1.125 1.055 1.125.287 0 .617-.088.827-.235l-.19-.566a1.224 1.224 0 01-.586.172c-.33 0-.438-.204-.438-.51v-1.373h1.081v-.604zm-9.883 3.04V19.19c0-.719-.458-1.202-1.196-1.208-.388-.007-.789.114-1.07.54-.209-.337-.54-.54-1.004-.54-.324 0-.642.095-.89.45v-.374h-.662v3.04h.668v-1.685c0-.528.293-.808.745-.808.438 0 .66.286.66.801V21.1h.669v-1.685c0-.528.305-.808.744-.808.451 0 .667.286.667.801V21.1h.669z" fill="#fff"/></svg>