<svg width="39" height="39" fill="none" xmlns="http://www.w3.org/2000/svg"><rect width="39" height="39" rx="19.5" fill="#00E676"/><path d="M27.678 11.357C25.548 9.18 22.602 8 19.594 8 13.202 8 8.063 13.16 8.125 19.438c0 1.989.564 3.916 1.504 5.657L8 31l6.079-1.554c1.692.932 3.572 1.368 5.452 1.368 6.33 0 11.469-5.16 11.469-11.438 0-3.046-1.19-5.906-3.322-8.02zm-8.084 17.53c-1.692 0-3.384-.436-4.826-1.306l-.376-.186-3.634.932.94-3.543-.251-.373c-2.758-4.414-1.441-10.257 3.07-12.992 4.513-2.735 10.341-1.43 13.099 3.046 2.757 4.476 1.441 10.257-3.071 12.992-1.442.932-3.196 1.43-4.951 1.43zm5.515-6.9l-.69-.311s-1.002-.435-1.629-.746c-.063 0-.125-.062-.188-.062a.91.91 0 00-.439.124s-.062.062-.94 1.057a.345.345 0 01-.313.186h-.063a.477.477 0 01-.25-.124l-.314-.124c-.689-.311-1.316-.684-1.817-1.181-.125-.125-.314-.25-.439-.373-.439-.436-.877-.933-1.19-1.492l-.063-.125c-.063-.062-.063-.124-.126-.248 0-.125 0-.249.063-.311 0 0 .25-.311.439-.497.125-.125.188-.311.313-.436.125-.186.188-.435.125-.621-.062-.311-.814-1.99-1.002-2.362-.125-.187-.25-.249-.439-.311h-.69c-.125 0-.25.062-.375.062l-.063.062c-.125.062-.25.187-.376.249-.125.124-.188.248-.313.373a3.154 3.154 0 00-.69 1.927c0 .497.126.994.314 1.43l.062.186a10.358 10.358 0 002.32 3.17l.25.249c.188.186.376.31.501.497 1.316 1.12 2.82 1.927 4.512 2.362.189.063.44.063.627.125h.627c.313 0 .69-.125.94-.249.188-.124.313-.124.439-.248l.125-.125c.125-.124.25-.186.376-.31.125-.125.25-.25.313-.374.126-.248.188-.56.251-.87v-.435s-.063-.062-.188-.124z" fill="#fff"/></svg>