<svg width="49" height="66" fill="none" xmlns="http://www.w3.org/2000/svg"><path d="M48.513 24.674a16.76 16.76 0 00-3.319-9.896.513.513 0 00-.117-.158 21.426 21.426 0 00-5.124-4.89 1.467 1.467 0 00-.162-.112A26.63 26.63 0 0029.696 5.57h-.045a.13.13 0 00-.072 0 28.09 28.09 0 00-2.823-.374c-.073-1.988-.482-3.216-.964-3.98A2.322 2.322 0 0024.352.05h-.205a2.338 2.338 0 00-1.445 1.165c-.486.765-.9 1.998-.963 3.986-9.361.792-17.156 5.906-20.263 12.825a.834.834 0 00-.045.112 16.181 16.181 0 00-1.395 6.563c0 5.358 2.607 10.347 7.348 14.067a12.728 12.728 0 00.59 6.23c-1.117 3.599-2.107 8.192-.225 12.096v.036c2.17 4.453 6.42 5.659 10.532 6.82a30.497 30.497 0 015.686 1.992l.063.027h.041a.603.603 0 00.126 0h.068a.48.48 0 00.234-.058 30.491 30.491 0 015.691-2.02c2.341-.661 4.732-1.35 6.754-2.622l.059-.041a10.053 10.053 0 003.719-4.156c1.904-3.91.9-8.444-.153-11.957a.2.2 0 00-.036-.068c1.071-2.6.774-5.398.635-6.333 4.737-3.702 7.344-8.682 7.344-14.04zm-1.014 0a15.372 15.372 0 01-.616 4.3 17.095 17.095 0 00-2.752-4.025c-2.048-2.25-5.673-5.025-11.553-6.114a65.048 65.048 0 0111.914-3.288 15.734 15.734 0 013.007 9.127zm-3.678-10.031a63.642 63.642 0 00-15.31 4.809c-.315-2.55-1.45-4.557-2.953-5.29.05-.18.09-.351.13-.522a65.888 65.888 0 0113.788-3.032 20.6 20.6 0 014.345 4.035zm-5.894 32.47l-.27.238a7.505 7.505 0 01-3.305 1.475h-.18c-2.517.45-5.777.112-9.744-1.053h-.293c-1.807.552-3.66.936-5.538 1.147h-.081c-3.517.342-6.164-.278-7.907-1.87-2.022-1.764-2.4-4.53-2.4-6.402a10.075 10.075 0 003.697 3.9c2.589 1.53 5.853 1.8 9.712.86a2.942 2.942 0 002.62 1.583 2.938 2.938 0 002.617-1.584c3.858.958 7.127.67 9.712-.859a10.008 10.008 0 003.697-3.9c.036 1.871-.343 4.638-2.337 6.464zM35.675 60.89a26.633 26.633 0 01-5.475 1.992 12.45 12.45 0 01-2.202-2.784c-.9-1.615-.45-3.392.22-5.074.113-.288.249-.599.393-.922.549-1.246 1.206-2.749.981-4.139.738.09 1.481.136 2.225.14.746.002 1.491-.055 2.228-.171.284.8-.121 2.177-.486 3.414A9.542 9.542 0 0033.005 56a5.798 5.798 0 002.67 4.89zM24.27 64.939c-.73-.54-3.255-2.622-3.742-6.028-.45-3.095.878-6.46 3.913-10.008a34.02 34.02 0 004.08.9c.36 1.142-.275 2.586-.838 3.868a28.69 28.69 0 00-.405.967c-.743 1.912-1.279 3.954-.162 5.938.546.946 1.207 1.82 1.967 2.604a28.432 28.432 0 00-4.817 1.76h.004zm11.793-21.246c-2.423 1.43-5.566 1.647-9.321.648a.502.502 0 00-.648.36 1.926 1.926 0 01-1.828 1.287 1.92 1.92 0 01-1.833-1.305.486.486 0 00-.243-.306.536.536 0 00-.423-.036c-3.747.994-6.876.778-9.303-.648a9.394 9.394 0 01-4.007-5.105c.41-.828 2.418-4.589 6.93-8.961.481-.279 6.605-3.626 17.767.027 4.48 4.35 6.524 8.151 6.925 8.938a9.417 9.417 0 01-4.02 5.088l.004.013zM20.952 20.896c0-2.578.94-4.845 2.22-5.677.139-.099.29-.179.45-.239.159-.06.326-.096.495-.108h.19c.171.004.341.036.503.095.16.052.31.125.45.216 1.14.706 2.022 2.546 2.225 4.737.035.324.052.65.05.976v.17a9.766 9.766 0 01-.343 2.475 8.743 8.743 0 01-.346.985c-.608 1.444-1.558 2.393-2.612 2.393s-2.004-.945-2.612-2.389a6.977 6.977 0 01-.355-1.034 9.762 9.762 0 01-.315-2.6zm1.067 6.046c-1.524.068-3.034.31-4.503.72a48.66 48.66 0 013.251-2.529 5.96 5.96 0 001.252 1.809zm4.318.143a5.687 5.687 0 001.391-1.952c1.35.976 2.603 1.97 3.72 2.947a34.186 34.186 0 00-5.111-.994zm-.419-14.597c.395-1.795.657-3.618.784-5.452.9-.175 1.823-.342 2.773-.495a26.032 26.032 0 018.627 3.212 66.659 66.659 0 00-12.184 2.735zM23.482 1.805a1.86 1.86 0 01.743-.774c.317.18.575.45.743.774.333.562.675 1.56.747 3.283V6.21c0 .328-.027.67-.05 1.048a39.01 39.01 0 01-.9 5.614c-.072.328-.144.66-.225 1.007a1.89 1.89 0 00-.315-.022 3.306 3.306 0 00-.37.027c-.049-.212-.103-.419-.148-.63a42.047 42.047 0 01-.9-5.33c-.036-.36-.063-.702-.077-1.026-.013-.324-.027-.54-.031-.792V5.093c.108-1.727.454-2.726.783-3.288zm-1.765 4.372c0 .31.023.639.045.976-9.24 2.51-14.958 6.217-17.867 8.547 3.567-5.168 10.136-8.848 17.822-9.523zM2.324 18.521c.356-.383 2.355-2.452 6.304-4.81a53.426 53.426 0 0113.22-5.514c.206 1.828.522 3.643.945 5.434a44.816 44.816 0 00-13.625 8.245c-4.052 3.671-6.115 7.09-6.948 8.736a15.223 15.223 0 01.108-12.087l-.004-.004zm.45 13.279c.63-1.422 5.147-10.657 18.948-16.644-1.086 1.268-1.779 3.342-1.779 5.735-.01 1.087.141 2.17.45 3.212-8.014 5.641-11.666 11.745-12.67 13.64A18.817 18.817 0 012.77 31.8h.004zm5.854 14.494a7.65 7.65 0 001.288 1.56 7.904 7.904 0 002.922 1.674 7.657 7.657 0 00-2.855 1.646 7.092 7.092 0 00-2.004 3.558c-.67-2.78-.117-5.812.626-8.438h.023zm.099 10.476c.288-6.801 6.66-6.698 6.938-6.689a.365.365 0 00.14-.022c.338 0 .684.027 1.036 0-2.09 1.646-3.355 3.553-3.76 5.69a9.214 9.214 0 00.833 5.654c-2.161-.922-4.016-2.258-5.21-4.633h.023zm6.686 5.223c-.373-.572-1.886-3.109-1.319-6.046.45-2.28 2.013-4.291 4.674-5.978a27.875 27.875 0 004.106-.756c-2.66 3.432-3.791 6.748-3.34 9.842a9.815 9.815 0 002.224 4.872c-1.059-.369-2.14-.675-3.202-.976-1.063-.301-2.148-.607-3.143-.958zM36.68 60.27a4.834 4.834 0 01-2.647-4.31 9.07 9.07 0 01.509-2.343c.414-1.386.833-2.812.522-3.9a8.7 8.7 0 002.377-.967c0 3.882 2.14 5.55 3.03 6.081a9.238 9.238 0 01-.652 1.84 9.049 9.049 0 01-3.157 3.599h.018zm4.003-6.518c-.878-.644-2.427-2.285-2.193-5.772l.145-.126c.479-.44.898-.94 1.247-1.489.621 2.277 1.13 4.886.783 7.387h.018zm.113-15.996c-.986-1.863-4.624-7.945-12.68-13.608a10.7 10.7 0 00.478-3.252v-.324a40.763 40.763 0 012.188-.985c6.56.782 10.464 3.693 12.585 6.01a15.24 15.24 0 013.04 4.8 18.256 18.256 0 01-5.63 7.359h.019z" fill="#3F4E65"/><path d="M17.529 35.987c-1.5 0-2.841.657-3.346 1.637a.508.508 0 00.221.68c.072.035.15.053.23.053a.503.503 0 00.45-.274c.329-.639 1.35-1.089 2.445-1.089 1.094 0 2.116.45 2.45 1.089a.504.504 0 00.931-.076.508.508 0 00-.031-.387c-.513-.976-1.864-1.633-3.35-1.633zm13.45 0c-1.5 0-2.846.657-3.346 1.637a.499.499 0 00.22.68c.072.035.15.053.23.053a.503.503 0 00.45-.274c.33-.639 1.351-1.089 2.446-1.089 1.094 0 2.116.45 2.45 1.089a.502.502 0 00.679.22.514.514 0 00.22-.683c-.508-.976-1.855-1.633-3.35-1.633z" fill="#3F4E65"/></svg>